HIERARCHY
ROOT joint_Root
{
	OFFSET 0.0 0.0 0.0
	CHANNELS 6 Xposition Yposition Zposition Zrotation Xrotation Yrotation 
	JOINT Hips
	{
		OFFSET 4.5925 91.4895 -427.239
		CHANNELS 6 Xposition Yposition Zposition Zrotation Xrotation Yrotation 
		JOINT Spine
		{
			OFFSET 15.7357 0.0 0.0
			CHANNELS 6 Xposition Yposition Zposition Zrotation Xrotation Yrotation 
			JOINT Chest
			{
				OFFSET 8.98455 -0.406207 0.0
				CHANNELS 6 Xposition Yposition Zposition Zrotation Xrotation Yrotation 
				JOINT Neck
				{
					OFFSET 16.3773 0.0 0.0
					CHANNELS 6 Xposition Yposition Zposition Zrotation Xrotation Yrotation 
					JOINT Head
					{
						OFFSET 6.45672 0.0 0.0
						CHANNELS 6 Xposition Yposition Zposition Zrotation Xrotation Yrotation 
						End Site
						{
							OFFSET 0.0 0.0 0.0
						}
					}
				}
				JOINT Shoulder_L
				{
					OFFSET 12.9942 -0.242716 4.98039
					CHANNELS 6 Xposition Yposition Zposition Zrotation Xrotation Yrotation 
					JOINT UpperArm_L
					{
						OFFSET 5.34809 0.0 0.0
						CHANNELS 6 Xposition Yposition Zposition Zrotation Xrotation Yrotation 
						JOINT LowerArm_L
						{
							OFFSET 24.3286 1.87007e-05 0.0
							CHANNELS 6 Xposition Yposition Zposition Zrotation Xrotation Yrotation 
							JOINT Hand_L
							{
								OFFSET 22.2916 0.0 0.0
								CHANNELS 6 Xposition Yposition Zposition Zrotation Xrotation Yrotation 
								End Site
								{
									OFFSET 0.0 0.0 0.0
								}
							}
						}
					}
				}
				JOINT Shoulder_R
				{
					OFFSET 12.9945 -0.242716 -4.98039
					CHANNELS 6 Xposition Yposition Zposition Zrotation Xrotation Yrotation 
					JOINT UpperArm_R
					{
						OFFSET -5.34813 0.0 0.0
						CHANNELS 6 Xposition Yposition Zposition Zrotation Xrotation Yrotation 
						JOINT LowerArm_R
						{
							OFFSET -24.3289 0.000322201 0.0
							CHANNELS 6 Xposition Yposition Zposition Zrotation Xrotation Yrotation 
							JOINT Hand_R
							{
								OFFSET -22.2915 -0.000108084 0.0
								CHANNELS 6 Xposition Yposition Zposition Zrotation Xrotation Yrotation 
								End Site
								{
									OFFSET 0.0 0.0 0.0
								}
							}
						}
					}
				}
			}
		}
		JOINT UpperLeg_L
		{
			OFFSET -2.19248 -6.46944 0.0
			CHANNELS 6 Xposition Yposition Zposition Zrotation Xrotation Yrotation 
			JOINT LowerLeg_L
			{
				OFFSET 39.0811 0.0 -1.23785e-05
				CHANNELS 6 Xposition Yposition Zposition Zrotation Xrotation Yrotation 
				JOINT Foot_L
				{
					OFFSET 40.9854 0.0 -1.26872e-05
					CHANNELS 6 Xposition Yposition Zposition Zrotation Xrotation Yrotation 
					JOINT Toes_L
					{
						OFFSET 11.7543 0.0 0.0
						CHANNELS 6 Xposition Yposition Zposition Zrotation Xrotation Yrotation 
						End Site
						{
							OFFSET 0.0 0.0 0.0
						}
					}
				}
			}
		}
		JOINT UpperLeg_R
		{
			OFFSET -2.19251 6.46944 0.0
			CHANNELS 6 Xposition Yposition Zposition Zrotation Xrotation Yrotation 
			JOINT LowerLeg_R
			{
				OFFSET -39.0811 -0.00228153 -0.0401928
				CHANNELS 6 Xposition Yposition Zposition Zrotation Xrotation Yrotation 
				JOINT Foot_R
				{
					OFFSET -40.9854 0.0 0.0
					CHANNELS 6 Xposition Yposition Zposition Zrotation Xrotation Yrotation 
					JOINT Toes_R
					{
						OFFSET -11.7543 0.0 0.0
						CHANNELS 6 Xposition Yposition Zposition Zrotation Xrotation Yrotation 
						End Site
						{
							OFFSET 0.0 0.0 0.0
						}
					}
				}
			}
		}
	}
}
MOTION
Frames:	4
Frame Time:	0.0333333
0.000000 0.000000 0.000000 0.000000 0.000000 -0.000000 1.001370 90.695700 -2.617390 89.990700 -5.109630 13.569400 15.735700 0.000005 -0.000001 91.998200 83.150800 -93.561800 8.984550 -0.406207 -0.000000 5.932900 0.501357 -3.149560 16.377300 -0.000001 -0.000001 28.444300 0.223661 1.740740 6.456720 -0.000001 -0.000000 14.239400 0.379510 -10.341400 12.994200 -0.242716 4.980390 -91.059600 3.729890 -74.129000 5.348090 -0.000007 -0.000001 -63.962900 38.119300 -13.373500 24.328600 0.000019 0.000005 7.951050 22.731100 -19.872700 22.291600 -0.000001 0.000005 9.409910 5.331060 -0.816536 12.994500 -0.242716 -4.980390 90.122200 -0.555527 -77.593900 -5.348130 -0.000001 -0.000004 -58.251900 -39.137900 -71.463200 -24.328900 0.000322 -0.000009 -1.707780 -0.352634 -78.321900 -22.291500 -0.000108 -0.000004 22.201600 5.405030 -3.101770 -2.192480 -6.469440 -0.000000 -174.917000 -15.547600 1.505940 39.081100 -0.000007 -0.000012 -0.110781 0.177695 31.941100 40.985400 -0.000006 -0.000013 1.766730 5.819940 -69.620300 11.754300 -0.000000 0.000003 -0.000097 -0.001005 -16.616100 -2.192510 6.469440 -0.000001 171.963000 19.461400 -177.449000 -39.081100 -0.002282 -0.040193 -0.146015 0.243255 31.542400 -40.985400 0.000008 0.000006 2.748320 13.892800 -69.811500 -11.754300 -0.000006 -0.000006 -0.004345 -0.054983 -18.809900
0.000000 0.000000 0.000000 0.000000 0.000000 -0.000000 1.011630 90.679100 -2.388150 90.001500 -4.901660 13.584500 15.735700 0.000005 -0.000001 92.195600 83.309900 -93.748900 8.984550 -0.406207 -0.000000 5.613810 0.540502 -3.129730 16.377300 -0.000001 -0.000001 27.968000 0.230578 1.741760 6.456720 -0.000001 -0.000000 14.131400 0.469553 -10.484300 12.994200 -0.242716 4.980390 -91.031000 3.634420 -74.151000 5.348090 -0.000007 -0.000001 -64.103300 37.983600 -13.198600 24.328600 0.000019 0.000005 7.967670 22.797400 -19.860900 22.291600 -0.000001 0.000005 9.481230 5.330780 -0.808323 12.994500 -0.242716 -4.980390 90.151200 -0.689019 -77.619200 -5.348130 -0.000001 -0.000004 -58.352300 -39.252600 -71.532400 -24.328900 0.000322 -0.000009 -1.671820 -0.346397 -78.282400 -22.291500 -0.000108 -0.000004 22.147000 5.404720 -3.091540 -2.192480 -6.469440 -0.000000 -174.941000 -15.419000 1.669590 39.081100 -0.000007 -0.000012 -0.111796 0.179264 31.949700 40.985400 -0.000006 -0.000013 1.781280 5.853590 -69.787600 11.754300 -0.000000 0.000003 -0.000104 -0.001060 -16.618200 -2.192510 6.469440 -0.000001 171.812000 19.590500 -177.209000 -39.081100 -0.002282 -0.040193 -0.152145 0.253304 31.536000 -40.985400 0.000008 0.000006 2.692200 13.860200 -69.978700 -11.754300 -0.000006 -0.000006 -0.004289 -0.054415 -18.786700
0.000000 0.000000 0.000000 0.000000 0.000000 -0.000000 1.012600 90.666500 -2.139650 90.005700 -4.702480 13.622200 15.735700 0.000005 -0.000001 92.487400 83.460000 -94.030200 8.984550 -0.406207 -0.000000 5.311820 0.599407 -3.109830 16.377300 -0.000001 -0.000001 27.438700 0.209621 1.722220 6.456720 -0.000001 -0.000000 14.056900 0.518180 -10.650300 12.994200 -0.242716 4.980390 -91.021200 3.602290 -74.161400 5.348090 -0.000007 -0.000001 -64.157600 37.769800 -13.002400 24.328600 0.000019 0.000005 7.988170 22.781200 -19.921000 22.291600 -0.000001 0.000005 9.440960 5.327890 -0.724103 12.994500 -0.242716 -4.980390 90.176900 -0.808888 -77.665500 -5.348130 -0.000001 -0.000004 -58.437600 -39.393900 -71.557700 -24.328900 0.000322 -0.000009 -1.726470 -0.358692 -78.252200 -22.291500 -0.000108 -0.000004 22.133200 5.406010 -3.133780 -2.192480 -6.469440 -0.000000 -174.956000 -15.200600 1.873660 39.081100 -0.000007 -0.000012 -0.114092 0.183076 31.931300 40.985400 -0.000006 -0.000013 1.768050 5.863610 -69.946000 11.754300 -0.000000 0.000003 -0.000100 -0.001026 -16.616900 -2.192510 6.469440 -0.000001 171.614000 19.823100 -176.899000 -39.081100 -0.002282 -0.040193 -0.159749 0.266156 31.491900 -40.985400 0.000008 0.000006 2.670410 13.962100 -70.145800 -11.754300 -0.000006 -0.000006 -0.004288 -0.054399 -18.786100
0.000000 0.000000 0.000000 0.000000 0.000000 -0.000000 0.994043 90.641900 -1.866880 89.985400 -4.488990 13.741600 15.735700 0.000005 -0.000001 92.789900 83.556100 -94.320000 8.984550 -0.406207 -0.000000 5.117450 0.661316 -3.086180 16.377300 -0.000001 -0.000001 26.972100 0.219734 1.716180 6.456720 -0.000001 -0.000000 13.744300 0.605037 -10.892700 12.994200 -0.242716 4.980390 -91.028200 3.618320 -74.125900 5.348090 -0.000007 -0.000001 -64.082900 37.577300 -12.927700 24.328600 0.000019 0.000005 8.012720 22.876200 -19.905800 22.291600 -0.000001 0.000005 9.477880 5.328970 -0.755447 12.994500 -0.242716 -4.980390 90.187000 -0.854882 -77.658300 -5.348130 -0.000001 -0.000004 -58.536400 -39.574700 -71.714100 -24.328900 0.000322 -0.000009 -1.725520 -0.360412 -78.191200 -22.291500 -0.000108 -0.000004 22.075800 5.403690 -3.057800 -2.192480 -6.469440 -0.000000 -174.884000 -15.019700 2.166110 39.081100 -0.000007 -0.000012 -0.120206 0.192599 31.969500 40.985400 -0.000006 -0.000013 1.755880 5.929200 -70.155000 11.754300 -0.000000 0.000003 -0.000086 -0.000900 -16.612200 -2.192510 6.469440 -0.000001 171.440000 20.016800 -176.492000 -39.081100 -0.002282 -0.040193 -0.163230 0.271970 31.479500 -40.985400 0.000008 0.000006 2.653340 13.989600 -70.357600 -11.754300 -0.000006 -0.000006 -0.004251 -0.054027 -18.770900
